# AST/ASF file generated using VICON BodyLanguage
# -----------------------------------------------
:version 1.10
:name VICON
:units
  mass 1.0
  length 0.45
  angle deg
:documentation
   .ast/.asf automatically generated from VICON data using
   VICON BodyBuilder and BodyLanguage model FoxedUp or BRILLIANT.MOD
:root
   order TX TY TZ RX RY RZ
   axis XYZ
   position 0 0 0  
   orientation 0 0 0 
:bonedata
  begin
     id 1 
     name lhipjoint
     direction 0.682418 -0.694059 0.22932 
     length 2.25561 
     axis 0 0 0  XYZ
  end
  begin
     id 2 
     name lfemur
     direction 0.34202 -0.939693 0  
     length 6.96448  
     axis 0 0 20  XYZ
    dof rx ry rz
    limits (-160.0 20.0)
           (-70.0 70.0)
           (-60.0 70.0)
  end
  begin
     id 3 
     name ltibia
     direction 0.34202 -0.939693 0   
     length 6.88553   
     axis 0 0 20   XYZ
    dof rx
    limits (-10.0 170.0)
  end
  begin
     id 4 
     name lfoot
     direction 0.0723587 -0.198804 0.977364   
     length 1.88518   
     axis -90 7.62852e-016 20   XYZ
    dof rx rz
    limits (-45.0 90.0)
           (-70.0 20.0)
  end
  begin
     id 5 
     name ltoes
     direction 1.53558e-011 -4.21962e-011 1   
     length 0.952124   
     axis -90 7.62852e-016 20   XYZ
    dof rx
    limits (-90.0 20.0)
  end
  begin
     id 6 
     name rhipjoint
     direction -0.657603 -0.71533 0.236348   
     length 2.18854  
     axis 0 0 0  XYZ 
  end
  begin
     id 7 
     name rfemur
     direction -0.34202 -0.939693 0   
     length 6.86686   
     axis 0 0 -20   XYZ
    dof rx ry rz
    limits (-160.0 20.0)
           (-70.0 70.0)
           (-70.0 60.0)
  end
  begin
     id 8 
     name rtibia
     direction -0.34202 -0.939693 0   
     length 6.59503   
     axis 0 0 -20   XYZ
    dof rx
    limits (-10.0 170.0)
 end
 begin
     id 9 
     name rfoot
     direction -0.101977 -0.280179 0.954516   
     length 1.93723  
     axis -90 -7.62852e-016 -20   XYZ
    dof rx rz
    limits (-45.0 90.0)
           (-20.0 70.0)
  end
  begin
     id 10 
     name rtoes
     direction -1.53564e-011 -4.21897e-011 1   
     length 0.970315   
     axis -90 -7.62852e-016 -20   XYZ
    dof rx
    limits (-90.0 20.0)
  end
  begin
     id 11 
     name lowerback
     direction -0.0339559 0.999421 -0.00235966   
     length 1.88543   
     axis 0 0 0   XYZ
    dof rx ry rz
    limits (-20.0 45.0)
           (-30.0 30.0)
           (-30.0 30.0)
  end
  begin
     id 12 
     name upperback
     direction 0.00401003 0.999739 0.0224689   
     length 1.8856   
     axis 0 0 0   XYZ
    dof rx ry rz
    limits (-20.0 45.0)
           (-30.0 30.0)
           (-30.0 30.0)
  end
  begin
     id 13 
     name thorax
     direction 0.0198619 0.999546 0.0226536   
     length 1.88352   
     axis 0 0 0   XYZ
    dof rx ry rz
    limits (-20.0 45.0)
           (-30.0 30.0)
           (-30.0 30.0)
  end
  begin
     id 14 
     name lowerneck
     direction -0.0461848 0.998632 0.0245198   
     length 1.34895   
     axis 0 0 0   XYZ
    dof rx ry rz
    limits (-20.0 45.0)
           (-30.0 30.0)
           (-30.0 30.0)
  end
  begin
     id 15 
     name upperneck
     direction -0.0180627 0.994724 -0.100984   
     length 1.35214   
     axis 0 0 0   XYZ
    dof rx ry rz
    limits (-20.0 45.0)
           (-30.0 30.0)
           (-30.0 30.0)
  end
  begin
     id 16
     name head
     direction -0.00374772 0.999293 -0.037403  
     length 1.3568  
     axis 0 0 0   XYZ
    dof rx ry rz
    limits (-20.0 45.0)
           (-30.0 30.0)
           (-30.0 30.0)
  end
  begin
     id 17 
     name lclavicle
     direction 0.971773 0.191119 0.138311  
     length 2.84954  
     axis 0 0 0   XYZ
    dof ry rz
    limits (-20.0 10.0)
           (0.0 20.0)
  end
  begin
     id 18 
     name lhumerus
     direction 1 -4.4897e-011 -2.43761e-027   
     length 4.40919   
     axis 180 -30 -90   XYZ
    dof rx ry rz
    limits (-60.0 90.0)
           (-90.0 90.0)
           (-90.0 90.0)
  end
  begin
     id 19
     name lradius
     direction 1 -4.4896e-011 -9.1621e-027   
     length 3.03857   
     axis 180 -30 -90   XYZ
    dof rx
    limits (-10.0 170.0)
  end
  begin
     id 20
     name lwrist
     direction 1 -4.4896e-011 -1.41363e-026   
     length 1.51928   
     axis 1.07133e-014 90 90   XYZ
    dof ry
    limits (-180.0 0.0)
 end
  begin
     id 21 
     name lhand
     direction 1 -4.48978e-011 -2.82725e-026   
     length 0.523208   
     axis 1.80403e-014 90 90   XYZ
    dof rx rz
    limits (-90.0 90.0)
           (-45.0 45.0)
  end
  begin
     id 22 
     name lfingers
     direction 1 -4.48977e-011 -5.6545e-026   
     length 0.421824   
     axis 3.60806e-014 90 90   XYZ
    dof rx
    limits (0.0 90.0)
  end
  begin
     id 23
     name lthumb
     direction 0.707107 -6.34962e-011 0.707107   
     length 0.605657   
     axis -90 45 2.85299e-015   XYZ
    dof rx rz
    limits (-45.0 45.0)
           (-45.0 45.0)
  end
  begin
     id 24 
     name rclavicle
     direction -0.957247 0.24311 0.156766   
     length 3.12406  
     axis 0 0 0   XYZ 
    dof ry rz
    limits (-10.0 20.0)
           (-20.0 0.0)
  end
  begin
     id 25 
     name rhumerus
     direction -1 -4.48964e-011 -1.70632e-027  
     length 4.61969   
     axis 180 30 90   XYZ
    dof rx ry rz
    limits (-90.0 60.0)
           (-90.0 90.0)
           (-90.0 90.0)
  end
  begin
     id 26 
     name rradius
     direction -1 -4.48966e-011 -6.60395e-027   
     length 3.09382   
     axis 180 30 90   XYZ
    dof rx
    limits (-10.0 170.0)
  end
  begin
     id 27 
     name rwrist
     direction -1 -4.48963e-011 -1.41363e-026   
     length 1.54691   
     axis 1.07133e-014 -90 -90   XYZ
    dof ry
    limits (-180.0 0.0)
  end
  begin
     id 28
     name rhand
     direction -1 -4.49013e-011 -2.82725e-026   
     length 0.500896   
     axis 1.80403e-014 -90 -90   XYZ
    dof rx rz
    limits (-90.0 90.0)
           (-45.0 45.0)
  end
  begin
     id 29
     name rfingers
     direction -1 -4.48902e-011 -5.6545e-026   
     length 0.403835   
     axis 3.60806e-014 -90 -90   XYZ
    dof rx
    limits (0.0 90.0)
  end
  begin
     id 30
     name rthumb
     direction -0.707107 -6.34953e-011 0.707107   
     length 0.579829   
     axis -90 -45 -2.85299e-015   XYZ
    dof rx rz
    limits (-45.0 45.0)
           (-45.0 45.0)
  end
:hierarchy
  begin
    root lhipjoint rhipjoint lowerback
    lhipjoint lfemur
    lfemur ltibia
    ltibia lfoot
    lfoot ltoes
    rhipjoint rfemur
    rfemur rtibia
    rtibia rfoot
    rfoot rtoes
    lowerback upperback
    upperback thorax
    thorax lowerneck lclavicle rclavicle
    lowerneck upperneck
    upperneck head
    lclavicle lhumerus
    lhumerus lradius
    lradius lwrist
    lwrist lhand lthumb
    lhand lfingers
    rclavicle rhumerus
    rhumerus rradius
    rradius rwrist
    rwrist rhand rthumb
    rhand rfingers
  end

#!OML:ASF E:\madness\Project 1\Capture day 1\Session 1\Female1.ASF
:FULLY-SPECIFIED
:DEGREES
704
root 17.2421 14.8717 4.95687 203.024 -15.8798 -180.923
lowerback 36.219 1.94524 1.50744
upperback 10.7534 0.279642 3.90027
thorax -6.13818 -1.13354 3.3546
lowerneck -8.03893 -6.1705 -3.88503
upperneck 5.93339 -7.90178 -2.52047
head 3.38965 -4.19401 -0.588028
rclavicle 4.53229e-014 -2.46493e-014
rhumerus -40.7076 -4.59044 -77.5289
rradius 78.0439
rwrist -25.73
rhand -23.8014 -50.0947
rfingers 7.12502
rthumb 2.66914 -80.0578
lclavicle 4.53229e-014 -2.46493e-014
lhumerus -51.2507 4.91953 86.1828
lradius 111.971
lwrist -17.0782
lhand -56.727 -35.5553
lfingers 7.12502
lthumb -29.0308 -7.79686
rfemur -61.0596 11.4193 -2.73912
rtibia 57.8372
rfoot -9.86564 -10.2927
rtoes -15.5164
lfemur -53.39 -10.2643 -18.2217
ltibia 57.3622
lfoot -16.3717 22.413
ltoes -2.00639
705
root 17.2709 14.874 4.95721 202.863 -16.2288 -181.096
lowerback 36.1909 1.96192 1.13821
upperback 10.7777 0.179504 4.05568
thorax -6.11093 -1.19116 3.74936
lowerneck -8.00773 -6.0876 -4.10572
upperneck 5.93349 -7.77054 -2.63468
head 3.38802 -4.14374 -0.579589
rclavicle -2.78299e-014 5.04913e-014
rhumerus -40.338 -4.05942 -77.4448
rradius 79.2369
rwrist -25.2376
rhand -23.2187 -49.8945
rfingers 7.12502
rthumb 3.23185 -79.8497
lclavicle -2.78299e-014 5.04913e-014
lhumerus -51.1667 5.09985 86.5942
lradius 112.678
lwrist -17.6278
lhand -56.9563 -37.4689
lfingers 7.12502
lthumb -29.2497 -9.74841
rfemur -61.4612 11.2011 -2.74059
rtibia 58.9279
rfoot -8.91943 -10.1914
rtoes -15.2517
lfemur -53.1754 -10.3569 -18.2867
ltibia 57.2464
lfoot -16.303 22.2804
ltoes -2.66113
706
root 17.3003 14.8807 4.95315 202.624 -16.5187 -181.2
lowerback 36.2231 2.06612 0.95262
upperback 10.8284 0.240569 4.15805
thorax -6.07738 -1.17298 3.93359
lowerneck -8.35429 -6.03578 -4.0908
upperneck 6.03804 -7.67295 -2.89438
head 3.47904 -4.11407 -0.677639
rclavicle -3.57812e-014 -1.63003e-014
rhumerus -40.0265 -3.88901 -77.2895
rradius 80.4047
rwrist -24.7612
rhand -23.4591 -49.9993
rfingers 7.12502
rthumb 2.9997 -79.9579
lclavicle -3.57812e-014 -1.63003e-014
lhumerus -50.9481 5.19535 86.9215
lradius 113.324
lwrist -18.4289
lhand -56.8584 -38.6785
lfingers 7.12502
lthumb -29.1563 -10.9417
rfemur -61.7897 11.1615 -2.74403
rtibia 59.9854
rfoot -7.96573 -10.0238
rtoes -14.6391
lfemur -52.8453 -10.3916 -18.3115
ltibia 57.1016
lfoot -16.41 21.9596
ltoes -2.71295
707
root 17.3331 14.8881 4.94676 202.313 -16.7831 -181.274
lowerback 36.3124 2.2465 0.866507
upperback 10.8731 0.431011 4.16748
thorax -6.07337 -1.0882 3.92062
lowerneck -8.299 -6.09405 -3.9927
upperneck 5.94406 -7.76302 -3.03986
head 3.42465 -4.16255 -0.741324
rclavicle 1.90833e-014 -4.49253e-014
rhumerus -39.8454 -3.94924 -77.191
rradius 81.5081
rwrist -24.2302
rhand -23.507 -49.6888
rfingers 7.12502
rthumb 2.95349 -79.6481
lclavicle 1.90833e-014 -4.49253e-014
lhumerus -50.8177 5.06589 87.0012
lradius 114.039
lwrist -19.4863
lhand -56.1538 -39.2513
lfingers 7.12502
lthumb -28.4832 -11.3998
rfemur -62.1115 11.3026 -2.84389
rtibia 61.0339
rfoot -7.16113 -9.75307
rtoes -13.0607
lfemur -52.4297 -10.3563 -18.3211
ltibia 56.9621
lfoot -16.6633 21.3795
ltoes -2.0161
708
root 17.3668 14.8937 4.94306 202.11 -17.2221 -181.4
lowerback 36.3312 2.31936 0.937457
upperback 10.859 0.566731 4.10535
thorax -6.09932 -1.01303 3.76787
lowerneck -8.0976 -6.17691 -3.7921
upperneck 5.82099 -7.90416 -3.09214
head 3.33131 -4.22513 -0.787324
rclavicle -1.11319e-014 2.14687e-014
rhumerus -39.6651 -4.06264 -77.1809
rradius 82.4025
rwrist -23.7169
rhand -23.2011 -49.1172
rfingers 7.12502
rthumb 3.24892 -79.0722
lclavicle -1.11319e-014 2.14687e-014
lhumerus -50.7608 4.63482 87.0567
lradius 114.653
lwrist -20.4561
lhand -56.1692 -39.2756
lfingers 7.12502
lthumb -28.4979 -11.4266
rfemur -62.4513 11.1781 -2.87372
rtibia 62.04
rfoot -6.54238 -9.32504
rtoes -10.2785
lfemur -52.1617 -10.4347 -18.2926
ltibia 56.8431
lfoot -16.783 20.8406
ltoes -1.29844
